# xmcd CD database file
#
# Track frame offsets:
#	150
#	31917
#	69066
#	99935
#	124435
#	142653
#	163955
#	188889
#	214970
#	243562
#
# Disc length: 3544 seconds
#
# Revision: 3
# Processed by: cddbd v1.5.2PL0 Copyright (c) Steve Scherf et al.
# Submitted via: CDex 1.76
#
DISCID=890dd60a
DTITLE=Lisa Lynne - Hopes and Dreams
DYEAR=2003
DGENRE=New Age
TTITLE0=Earth and Sky
TTITLE1=Living in Love
TTITLE2=Dreamdance
TTITLE3=Circle the Sun
TTITLE4=Bamboo Morning
TTITLE5=Soliloquy
TTITLE6=Sea March
TTITLE7=Home
TTITLE8=Interlude
TTITLE9=Natural World
EXTD=YEAR: 2003
EXTT0=
EXTT1=
EXTT2=
EXTT3=
EXTT4=
EXTT5=
EXTT6=
EXTT7=
EXTT8=
EXTT9=
PLAYORDER=
